<?xml version="1.0" encoding="UTF-8"?>
<svg xmlns="http://www.w3.org/2000/svg" xmlns:xlink="http://www.w3.org/1999/xlink" width="800px" height="800px" viewBox="0 0 400 400" version="1.1">
<g id="surface1">
<path style=" stroke:none;fill-rule:nonzero;fill:rgb(0%,0%,0%);fill-opacity:1;" d="M 326.027344 217.390625 L 182.609375 217.390625 L 182.609375 73.972656 C 182.609375 66.742188 176.714844 60.867188 169.488281 60.871094 C 75.871094 60.917969 0.0078125 136.804688 0 230.433594 C 0.0078125 324.085938 75.902344 399.984375 169.554688 400 L 169.566406 400 C 263.191406 399.992188 339.078125 324.128906 339.128906 230.511719 C 339.132812 223.285156 333.257812 217.390625 326.027344 217.390625 Z M 326.027344 217.390625 "/>
<path style=" stroke:none;fill-rule:nonzero;fill:rgb(0%,0%,0%);fill-opacity:1;" d="M 221.59375 0.0585938 C 214.453125 0.238281 208.695312 6.011719 208.695312 13.15625 L 208.695312 191.304688 L 386.84375 191.304688 C 393.988281 191.304688 399.761719 185.542969 399.941406 178.402344 C 402.453125 79.011719 320.980469 -2.457031 221.59375 0.0585938 Z M 221.59375 0.0585938 "/>
</g>
</svg>
