<?xml version="1.0" encoding="UTF-8"?>
<svg xmlns="http://www.w3.org/2000/svg" xmlns:xlink="http://www.w3.org/1999/xlink" width="800px" height="800px" viewBox="0 0 400 400" version="1.1">
<g id="surface1">
<path style=" stroke:none;fill-rule:nonzero;fill:rgb(16.078432%,17.647059%,19.607843%);fill-opacity:1;" d="M 325.199219 97.5 L 226.199219 40.332031 C 210.03125 31 190.03125 31 173.699219 40.332031 L 74.863281 97.5 C 58.699219 106.832031 48.699219 124.167969 48.699219 143 L 48.699219 257 C 48.699219 275.667969 58.699219 293 74.863281 302.5 L 173.863281 359.667969 C 190.03125 369 210.03125 369 226.363281 359.667969 L 325.363281 302.5 C 341.53125 293.167969 351.53125 275.832031 351.53125 257 L 351.53125 143 C 351.363281 124.167969 341.363281 107 325.199219 97.5 Z M 200.03125 122.332031 C 221.53125 122.332031 238.863281 139.667969 238.863281 161.167969 C 238.863281 182.667969 221.53125 200 200.03125 200 C 178.53125 200 161.199219 182.667969 161.199219 161.167969 C 161.199219 139.832031 178.53125 122.332031 200.03125 122.332031 Z M 244.699219 277.667969 L 155.363281 277.667969 C 141.863281 277.667969 134.03125 262.667969 141.53125 251.5 C 152.863281 234.667969 174.863281 223.332031 200.03125 223.332031 C 225.199219 223.332031 247.199219 234.667969 258.53125 251.5 C 266.03125 262.5 258.03125 277.667969 244.699219 277.667969 Z M 244.699219 277.667969 "/>
</g>
</svg>
